<svg xmlns="http://www.w3.org/2000/svg" viewBox="949.167 947.5 107.666 106">
<path fill="#3BA9EE" d="M1042.97,981.397c1.704,32.492-23.253,60.213-55.745,61.919c-12.188,0.64-24.274-2.522-34.587-9.049
	c10.551,0.692,20.987-2.534,29.305-9.064c-8.089-0.964-14.903-6.485-17.523-14.197c3.127,0.501,6.328,0.294,9.365-0.605
	c-9.685-1.823-16.827-10.093-17.22-19.939c2.687,1.077,5.565,1.591,8.459,1.51c-8.331-6.445-10.649-18.038-5.438-27.191
	c10.485,12.949,25.962,20.852,42.598,21.753c-3.288-10.685,2.708-22.012,13.393-25.3c7.882-2.425,16.447,0.173,21.653,6.568
	c4.629-0.831,9.045-2.577,12.991-5.136c-1.504,4.902-4.864,9.023-9.366,11.48c4.091-0.414,8.079-1.539,11.782-3.323
	C1050.86,975.439,1047.408,979.216,1042.97,981.397"/>
</svg>
